# xmcd
#
# Track frame offsets: 
#        150
#        13770
#        26888
#        40392
#        54254
#        69260
#        80891
#        95255
#        109718
#        123796
#        137756
#        154083
#        165240
#        177553
#        190383
#        202416
#        216835
#        237805
#        251290
#        276443
#
# Disc length: 3871 seconds
#
# Revision: 0
# Processed by: cddbd v1.5.2PL0 Copyright (c) Steve Scherf et al.
# Submitted via: ExactAudioCopy v0.90b4
#
DISCID=1d0f1d14
DTITLE=Various Artist - Beginner's Guide To New Orleans [CD1] (Tra
DTITLE=d and Blues)
DYEAR=2010
DGENRE=Blues
TTITLE0=Louis Armstrong - Snake Rag
TTITLE1=Chubby Newsome - New Orleans Lover Man
TTITLE2=Jimmie Noone - Sweet Georgia Brown
TTITLE3=The Eddie Miller Orchestra - Muskrat Ramble
TTITLE4=Louis Armstrong and Billie Holiday - My Sweet Hunk O' Trash
TTITLE5=Zutty Singleton And His Orchestra - King Porter Stomp
TTITLE6=Jelly Roll Morton - Black Bottom Stomp
TTITLE7=New Orleans Feetwarmers - I've Found A New Baby
TTITLE8=King Oliver's Jazz Band - Deep Henderson
TTITLE9=New Orleans Owls - That's A Plenty
TTITLE10=Tommy Ladnier And His Orchestra - Really The Blues
TTITLE11=Professor Longhair - Professor Longhair Blues
TTITLE12=Floyd Dixon - Floyd's After Hours
TTITLE13=Charles Brown - Black Night
TTITLE14=James 'Blazer Boy' Locks - New Orleans Women Blues
TTITLE15=Mississippi Fred McDowell - Don't Say A Mumblin' Word
TTITLE16=Bad Smitty - Smokestack Lightning
TTITLE17=Lightnin' Slim - Bad Feeling Blues
TTITLE18=Champion Jack Dupree - Blues From 1921
TTITLE19=New Orleans Wanderers - Gate Mouth
EXTD=
EXTT0=
EXTT1=
EXTT2=
EXTT3=
EXTT4=
EXTT5=
EXTT6=
EXTT7=
EXTT8=
EXTT9=
EXTT10=
EXTT11=
EXTT12=
EXTT13=
EXTT14=
EXTT15=
EXTT16=
EXTT17=
EXTT18=
EXTT19=
PLAYORDER=
